{"title":"Real Steel (2011) TS NL subs DutchReleaseTeam [Actie&amp;Drama]","uid":6741818,"size":736761237,"categoryP":"video","categoryS":"movies","magnet":"?xt=urn:btih:71ecaebb112e850907c20f788279a17a32ad67d5&amp;dn=Real+Steel+%282011%29+TS+NL+subs+DutchReleaseTeam+%5BActie%26amp%3BDrama%5D&amp;tr=udp%3A%2F%2Ftracker.openbittorrent.com%3A80&amp;tr=udp%3A%2F%2Fopen.demonii.com%3A1337&amp;tr=udp%3A%2F%2Ftracker.coppersurfer.tk%3A6969&amp;tr=udp%3A%2F%2Fexodus.desync.com%3A6969","seeders":1,"leechers":1,"uploader":"Koedje","files":-1,"time":1318534726,"description":" &lt;a href=&quot;http://img21.imageshack.us/img21/8382/realsteelq.jpg&quot; rel=&quot;nofollow&quot; target=&quot;_NEW&quot;&gt;http://img21.imageshack.us/img21/8382/realsteelq.jpg&lt;/a&gt;\n\n\nVerenigde Staten / India\nActie / Drama\n127 minuten\n\ngeregisseerd door Shawn Levy\nmet Hugh Jackman, Evangeline Lilly en Kevin Durand\n\nEen verhaal dat zich afspeelt in het jaar 2020, waar robotboxen een populaire sport is. Een promotor (Hugh Jackman) die moeite heeft zijn hoofd boven water te houden stuit op een afgeschreven robot en denkt er een kampioen van te kunnen maken. Terwijl hij samen met de robot furore maakt, komt hij erachter dat hij een zoontje van elf jaar oud heeft, die hem wil leren kennen.\n\n\nVertaald door Simply ReleaseS Toppers\nJesprulin, Suurtje &amp; Tokke\n\n\n\n\n\nScreenshots:\n &lt;a href=&quot;\nhttp://img11.imageshack.us/img11/8897/screenshot1cfb.jpg&quot; rel=&quot;nofollow&quot; target=&quot;_NEW&quot;&gt;\nhttp://img11.imageshack.us/img11/8897/screenshot1cfb.jpg&lt;/a&gt;\n &lt;a href=&quot;\nhttp://img94.imageshack.us/img94/6943/screenshot2gmn.jpg&quot; rel=&quot;nofollow&quot; target=&quot;_NEW&quot;&gt;\nhttp://img94.imageshack.us/img94/6943/screenshot2gmn.jpg&lt;/a&gt;\n &lt;a href=&quot;\nhttp://img190.imageshack.us/img190/3460/screenshot3ui.jpg&quot; rel=&quot;nofollow&quot; target=&quot;_NEW&quot;&gt;\nhttp://img190.imageshack.us/img190/3460/screenshot3ui.jpg&lt;/a&gt;\n &lt;a href=&quot;\nhttp://img265.imageshack.us/img265/8520/screenshot4tz.jpg&quot; rel=&quot;nofollow&quot; target=&quot;_NEW&quot;&gt;\nhttp://img265.imageshack.us/img265/8520/screenshot4tz.jpg&lt;/a&gt;\n\n\n\nINFO;\n\n\nVideo\nID                                       : 0\nFormat                                   : MPEG-4 Visual\nFormat profile                           : Advanced Simple@L5\nFormat settings, BVOP                    : 1\nFormat settings, QPel                    : No\nFormat settings, GMC                     : No warppoints\nFormat settings, Matrix                  : Custom\nCodec ID                                 : XVID\nCodec ID/Hint                            : XviD\nDuration                                 : 1h 55mn\nBit rate                                 : 722 Kbps\nWidth                                    : 608 pixels\nHeight                                   : 256 pixels\nDisplay aspect ratio                     : 2.40:1\nFrame rate                               : 25.000 fps\nColor space                              : YUV\nChroma subsampling                       : 4:2:0\nBit depth                                : 8 bits\nScan type                                : Progressive\nCompression mode                         : Lossy\nBits/(Pixel*Frame)                       : 0.186\nStream size                              : 599 MiB (86%)\nWriting library                          : XviD 64\n\nAudio\nID                                       : 1\nFormat                                   : MPEG Audio\nFormat version                           : Version 1\nFormat profile                           : Layer 3\nMode                                     : Joint stereo\nMode extension                           : MS Stereo\nCodec ID                                 : 55\nCodec ID/Hint                            : MP3\nDuration                                 : 1h 55mn\nBit rate mode                            : Variable\nBit rate                                 : 109 Kbps\nNominal bit rate                         : 128 Kbps\nChannel(s)                               : 2 channels\nSampling rate                            : 48.0 KHz\nCompression mode                         : Lossy\nStream size                              : 90.3 MiB (13%)\nAlignment                                : Aligned on interleaves\nInterleave, duration                     : 24 ms (0.60 video frame)\nInterleave, preload duration             : 525 ms\nWriting library                          : LAME3.98r\n\n\n &lt;a href=&quot;\nhttp://www.imdb.com/title/tt0433035/&quot; rel=&quot;nofollow&quot; target=&quot;_NEW&quot;&gt;\nhttp://www.imdb.com/title/tt0433035/&lt;/a&gt; &lt;a href=&quot;\nhttp://www.moviemeter.nl/film/67008&quot; rel=&quot;nofollow&quot; target=&quot;_NEW&quot;&gt;\nhttp://www.moviemeter.nl/film/67008&lt;/a&gt;\n\n\nDeze film wordt u aangeboden door het DutchReleaseTeam.\nVoor de reviews van de nieuwste films, muziek, series, games etc\nga dan eens naar http://www.hetmultimediacafe.be\n\nDutchReleaseteam = Hardcoded Dutch Subs","torrent":{"xt":"urn:btih:71ecaebb112e850907c20f788279a17a32ad67d5","amp;dn":"Real+Steel+%282011%29+TS+NL+subs+DutchReleaseTeam+%5BActie%26amp%3BDrama%5D","amp;tr":["udp%3A%2F%2Ftracker.openbittorrent.com%3A80","udp%3A%2F%2Fopen.demonii.com%3A1337","udp%3A%2F%2Ftracker.coppersurfer.tk%3A6969","udp%3A%2F%2Fexodus.desync.com%3A6969"],"infoHash":"71ecaebb112e850907c20f788279a17a32ad67d5","infoHashBuffer":{"type":"Buffer","data":[113,236,174,187,17,46,133,9,7,194,15,120,130,121,161,122,50,173,103,213]},"announce":[],"urlList":[]}}